<?xml version="1.0" encoding="UTF-8"?><svg xmlns="http://www.w3.org/2000/svg" xmlns:xlink="http://www.w3.org/1999/xlink" viewBox="0 0 50 50" version="1.1"><path d="M29 3c-2.105 0-4.566 1.652-4.938 9.031.313-.008.622-.031.938-.031.352 0 .715.02 1.063.031C26.3 7.598 27.355 5 29 5c.703 0 1.102.383 1.844 1.188.867.94 2 2.164 4.218 2.625A6.215 6.215 0 0 1 35 8c0-.422.043-.82.125-1.219-1.375-.375-2.102-1.168-2.813-1.937C31.52 3.984 30.61 3 29 3zm12 1c-2.207 0-4 1.797-4 4 0 2.203 1.793 4 4 4s4-1.797 4-4c0-2.203-1.793-4-4-4zM25 14C12.867 14 3 20.18 3 29s9.867 16 22 16 22-7.18 22-16-9.867-15-22-15zm-17.5.938c-1.46 0-2.848.597-3.906 1.656-1.723 1.722-2.078 4.199-1.094 6.25 1.512-2.926 4.113-5.422 7.469-7.282-.762-.386-1.606-.624-2.469-.624zm35 0c-.863 0-1.707.238-2.469.624 3.356 1.86 5.957 4.356 7.469 7.282.984-2.051.629-4.528-1.094-6.25-1.058-1.059-2.445-1.657-3.906-1.657zM17 23a3 3 0 1 1-.002 6.002A3 3 0 0 1 17 23zm16 0a3 3 0 1 1-.002 6.002A3 3 0 0 1 33 23zM16.062 34c.25.043.497.184.657.406.105.149 2.449 3.282 8.281 3.282 5.91 0 8.258-3.22 8.281-3.25.317-.45.953-.57 1.407-.25.449.316.535.921.218 1.374-.117.168-2.968 4.126-9.906 4.126-6.941 0-9.79-3.958-9.906-4.126-.317-.453-.235-1.058.219-1.374.226-.16.5-.231.75-.188z" id="surface1"/><metadata><rdf:RDF xmlns:rdf="http://www.w3.org/1999/02/22-rdf-syntax-ns#" xmlns:rdfs="http://www.w3.org/2000/01/rdf-schema#" xmlns:dc="http://purl.org/dc/elements/1.1/"><rdf:Description about="https://iconscout.com/legal#licenses" dc:title="reddit,filled" dc:description="reddit,filled" dc:publisher="Iconscout" dc:date="2017-12-09" dc:format="image/svg+xml" dc:language="en"><dc:creator><rdf:Bag><rdf:li>Icons8</rdf:li></rdf:Bag></dc:creator></rdf:Description></rdf:RDF></metadata></svg>